<svg aria-hidden="true" style="position: absolute; width: 0; height: 0; overflow: hidden;" version="1.1" xmlns="http://www.w3.org/2000/svg" xmlns:xlink="http://www.w3.org/1999/xlink">
<defs>
<symbol id="icon-Facebook" viewBox="0 0 32 32">
<path stroke-linejoin="round" stroke-linecap="round" stroke-miterlimit="4" stroke-width="3.2" d="M24 2.667h-4c-1.768 0-3.464 0.702-4.714 1.953s-1.953 2.946-1.953 4.714v4h-4v5.333h4v10.667h5.333v-10.667h4l1.333-5.333h-5.333v-4c0-0.354 0.14-0.693 0.391-0.943s0.589-0.39 0.943-0.39h4v-5.333z"></path>
</symbol>
<symbol id="icon-Frame-1" viewBox="0 0 32 32">
<path fill="none" stroke="#fff" style="stroke: var(--color1, #fff)" stroke-linejoin="round" stroke-linecap="round" stroke-miterlimit="4" stroke-width="3.5556" d="M14.667 25.333c5.891 0 10.667-4.776 10.667-10.667s-4.776-10.667-10.667-10.667c-5.891 0-10.667 4.776-10.667 10.667s4.776 10.667 10.667 10.667z"></path>
<path fill="none" stroke="#fff" style="stroke: var(--color1, #fff)" stroke-linejoin="round" stroke-linecap="round" stroke-miterlimit="4" stroke-width="3.5556" d="M28 28l-5.8-5.8"></path>
</symbol>
<symbol id="icon-Frame-2" viewBox="0 0 32 32">
<path fill="none" stroke="#fff" style="stroke: var(--color1, #fff)" stroke-linejoin="round" stroke-linecap="round" stroke-miterlimit="4" stroke-width="3.5556" d="M27.556 15.6c0.005 1.76-0.407 3.496-1.2 5.067-0.941 1.882-2.387 3.466-4.177 4.572s-3.852 1.693-5.957 1.694c-1.76 0.005-3.496-0.407-5.067-1.2l-7.6 2.533 2.533-7.6c-0.793-1.571-1.205-3.307-1.2-5.067 0.001-2.104 0.588-4.167 1.694-5.957s2.69-3.236 4.572-4.177c1.571-0.793 3.307-1.205 5.067-1.2h0.667c2.779 0.153 5.404 1.326 7.372 3.294s3.141 4.593 3.294 7.372v0.667z"></path>
</symbol>
<symbol id="icon-Frame-3" viewBox="0 0 32 32">
<path fill="none" stroke="#fff" style="stroke: var(--color1, #fff)" stroke-linejoin="round" stroke-linecap="round" stroke-miterlimit="4" stroke-width="3.5556" d="M27.144 6.416c-0.681-0.681-1.49-1.222-2.38-1.591s-1.844-0.559-2.807-0.559c-0.963 0-1.917 0.19-2.807 0.559s-1.699 0.909-2.38 1.591l-1.413 1.413-1.413-1.413c-1.376-1.376-3.241-2.148-5.187-2.148s-3.811 0.773-5.187 2.148c-1.376 1.376-2.148 3.241-2.148 5.187s0.773 3.811 2.148 5.187l11.787 11.787 11.787-11.787c0.681-0.681 1.222-1.49 1.591-2.38s0.558-1.844 0.558-2.807c0-0.963-0.19-1.917-0.558-2.807s-0.909-1.699-1.591-2.38z"></path>
</symbol>
<symbol id="icon-Instagram" viewBox="0 0 32 32">
<path stroke-linejoin="round" stroke-linecap="round" stroke-miterlimit="4" stroke-width="3.122" d="M22.504 2.992h-13.008c-3.592 0-6.504 2.912-6.504 6.504v13.008c0 3.592 2.912 6.504 6.504 6.504h13.008c3.592 0 6.504-2.912 6.504-6.504v-13.008c0-3.592-2.912-6.504-6.504-6.504z"></path>
<path stroke-linejoin="round" stroke-linecap="round" stroke-miterlimit="4" stroke-width="3.122" d="M21.203 15.181c0.161 1.083-0.024 2.188-0.528 3.16s-1.302 1.759-2.279 2.251c-0.978 0.492-2.085 0.663-3.166 0.489s-2.079-0.684-2.853-1.458c-0.774-0.774-1.284-1.772-1.458-2.853s-0.003-2.188 0.489-3.166c0.492-0.978 1.28-1.775 2.251-2.279s2.077-0.689 3.16-0.528c1.104 0.164 2.127 0.678 2.916 1.468s1.304 1.812 1.468 2.916z"></path>
<path stroke-linejoin="round" stroke-linecap="round" stroke-miterlimit="4" stroke-width="3.122" d="M23.154 8.846h0.013"></path>
</symbol>
<symbol id="icon-Logo" viewBox="0 0 32 32">
<path d="M16 0c8.837 0 16 7.163 16 16s-7.163 16-16 16c-8.837 0-16-7.163-16-16s7.163-16 16-16z"></path>
</symbol>
<symbol id="icon-Twitter" viewBox="0 0 32 32">
<path stroke-linejoin="round" stroke-linecap="round" stroke-miterlimit="4" stroke-width="3.2" d="M30.667 4c-1.277 0.901-2.69 1.589-4.187 2.040-0.803-0.923-1.87-1.578-3.057-1.875s-2.437-0.222-3.58 0.214c-1.143 0.436-2.125 1.213-2.812 2.226s-1.047 2.211-1.031 3.435v1.333c-2.343 0.061-4.665-0.459-6.759-1.513s-3.894-2.609-5.241-4.527c0 0-5.333 12 6.667 17.333-2.746 1.864-6.017 2.799-9.333 2.667 12 6.667 26.667 0 26.667-15.333-0.001-0.371-0.037-0.742-0.107-1.107 1.361-1.342 2.321-3.036 2.773-4.893z"></path>
</symbol>
</defs>
</svg>
